<mxfile host="app.diagrams.net" modified="2024-02-16T00:20:16.665Z" agent="Mozilla/5.0 (Windows NT 10.0; Win64; x64) AppleWebKit/537.36 (KHTML, like Gecko) Chrome/121.0.0.0 Safari/537.36" version="23.1.2" etag="QVPdBsHX9OlbWCdieAfO" type="github">
  <diagram name="Σελίδα-1" id="bdJAyujOeMikRCHktjCR">
    <mxGraphModel>
      <root>
        <mxCell id="0" />
        <mxCell id="1" parent="0" />
      </root>
    </mxGraphModel>
  </diagram>
</mxfile>
